<svg width="129" height="38" viewBox="0 0 129 38" fill="none" xmlns="http://www.w3.org/2000/svg">
<g clip-path="url(#clip0_262_1446)">
<rect width="129" height="38" rx="5" fill="#F8F4F6"/>
<path d="M21 14.334V23.6673" stroke="#721F4B" stroke-width="0.875" stroke-linejoin="round"/>
<path d="M16.3335 19H25.6668" stroke="#721F4B" stroke-width="0.875" stroke-linejoin="round"/>
<path d="M37.824 25H36.192L40.416 13.432H42.16L46.4 25H44.752L43.712 22.12H38.848L37.824 25ZM41.088 15.928L39.328 20.76H43.248L41.472 15.928C41.392 15.704 41.312 15.432 41.28 15.256C41.248 15.416 41.168 15.688 41.088 15.928ZM50.5369 25.192C48.2649 25.192 46.8889 23.496 46.8889 21.112C46.8889 18.712 48.2809 16.952 50.6009 16.952C51.8009 16.952 52.8089 17.48 53.3369 18.44V13.224H54.8249V25H53.4809L53.3529 23.576C52.8409 24.648 51.7849 25.192 50.5369 25.192ZM50.8409 23.832C52.3769 23.832 53.3209 22.696 53.3209 21.064C53.3209 19.464 52.3769 18.312 50.8409 18.312C49.3049 18.312 48.4089 19.464 48.4089 21.064C48.4089 22.68 49.3049 23.832 50.8409 23.832ZM60.1466 25.192C57.8746 25.192 56.4986 23.496 56.4986 21.112C56.4986 18.712 57.8906 16.952 60.2106 16.952C61.4106 16.952 62.4186 17.48 62.9466 18.44V13.224H64.4346V25H63.0906L62.9626 23.576C62.4506 24.648 61.3946 25.192 60.1466 25.192ZM60.4506 23.832C61.9866 23.832 62.9306 22.696 62.9306 21.064C62.9306 19.464 61.9866 18.312 60.4506 18.312C58.9146 18.312 58.0186 19.464 58.0186 21.064C58.0186 22.68 58.9146 23.832 60.4506 23.832ZM72.8354 13.432V25H71.2674V13.432H72.8354ZM76.797 25H75.293V17.176H76.637L76.781 18.2C77.181 17.464 78.013 16.952 79.117 16.952C80.333 16.952 81.197 17.56 81.597 18.536C81.965 17.56 82.909 16.952 84.125 16.952C85.917 16.952 87.005 18.072 87.005 19.88V25H85.533V20.248C85.533 19.016 84.845 18.312 83.789 18.312C82.653 18.312 81.901 19.112 81.901 20.36V25H80.413V20.232C80.413 19 79.741 18.328 78.685 18.328C77.549 18.328 76.797 19.112 76.797 20.36V25ZM91.3939 25.192C89.7139 25.192 88.7219 24.248 88.7219 22.824C88.7219 21.384 89.7939 20.488 91.6339 20.344L94.0979 20.152V19.928C94.0979 18.616 93.3139 18.152 92.2579 18.152C90.9939 18.152 90.2739 18.712 90.2739 19.656H88.9619C88.9619 18.024 90.3059 16.952 92.3219 16.952C94.2579 16.952 95.5699 17.976 95.5699 20.088V25H94.2899L94.1299 23.736C93.7299 24.632 92.6579 25.192 91.3939 25.192ZM91.8259 24.024C93.2499 24.024 94.1139 23.096 94.1139 21.624V21.208L92.1139 21.368C90.7859 21.496 90.2419 22.008 90.2419 22.776C90.2419 23.608 90.8499 24.024 91.8259 24.024ZM97.1727 20.888C97.1727 18.68 98.5967 16.952 100.869 16.952C102.133 16.952 103.109 17.528 103.605 18.504L103.717 17.176H105.061V24.68C105.061 27.144 103.541 28.712 101.141 28.712C99.0127 28.712 97.5567 27.512 97.2687 25.528H98.7727C98.9647 26.68 99.8287 27.352 101.141 27.352C102.613 27.352 103.573 26.392 103.573 24.904V23.336C103.061 24.248 102.037 24.792 100.805 24.792C98.5807 24.792 97.1727 23.08 97.1727 20.888ZM98.6767 20.856C98.6767 22.328 99.5887 23.48 101.061 23.48C102.581 23.48 103.509 22.392 103.509 20.856C103.509 19.352 102.613 18.264 101.077 18.264C99.5727 18.264 98.6767 19.416 98.6767 20.856ZM110.623 25.192C108.319 25.192 106.735 23.528 106.735 21.096C106.735 18.648 108.287 16.952 110.559 16.952C112.783 16.952 114.239 18.488 114.239 20.808V21.368L108.191 21.384C108.303 23.032 109.167 23.944 110.655 23.944C111.823 23.944 112.591 23.464 112.847 22.568H114.255C113.871 24.248 112.559 25.192 110.623 25.192ZM110.559 18.216C109.247 18.216 108.415 19 108.223 20.376H112.735C112.735 19.08 111.887 18.216 110.559 18.216Z" fill="#721F4B"/>
</g>
<defs>
<clipPath id="clip0_262_1446">
<rect width="129" height="38" fill="white"/>
</clipPath>
</defs>
</svg>
