<svg width="13" height="13" viewBox="0 0 13 13" fill="none" xmlns="http://www.w3.org/2000/svg">
<g id="bed-single-02" clip-path="url(#clip0_299_1891)">
<path id="Vector" d="M11.6387 8.96777H1.63867" stroke="#4A5683" stroke-linecap="round" stroke-linejoin="round"/>
<path id="Vector_2" d="M11.6387 10.7178V8.21777C11.6387 7.27497 11.6387 6.80357 11.3458 6.51067C11.0529 6.21777 10.5815 6.21777 9.63867 6.21777H3.63867C2.69586 6.21777 2.22446 6.21777 1.93157 6.51067C1.63867 6.80357 1.63867 7.27497 1.63867 8.21777V10.7178" stroke="#4A5683" stroke-linecap="round" stroke-linejoin="round"/>
<path id="Vector_3" d="M8.63867 6.21777V5.52667C8.63867 5.27292 8.59292 5.18804 8.35847 5.08802C7.87022 4.87972 7.27757 4.71777 6.63867 4.71777C5.99977 4.71777 5.40711 4.87972 4.91887 5.08802C4.68444 5.18804 4.63867 5.27292 4.63867 5.52667V6.21777" stroke="#4A5683" stroke-linecap="round"/>
<path id="Vector_4" d="M2.13867 6.21777V4.71777C2.13867 4.01067 2.13867 3.65711 2.35834 3.43744C2.57801 3.21777 2.93157 3.21777 3.63867 3.21777C3.77605 3.21777 3.9671 3.25413 4.09008 3.18783C4.14562 3.1579 4.19542 3.08221 4.29502 2.93085C4.77328 2.20401 5.75097 1.71777 6.63867 1.71777C7.52637 1.71777 8.50407 2.20401 8.98232 2.93085C9.08192 3.08221 9.13172 3.1579 9.18727 3.18783C9.31027 3.25413 9.50127 3.21777 9.63867 3.21777C10.3458 3.21777 10.6993 3.21777 10.919 3.43744C11.1387 3.65711 11.1387 4.01067 11.1387 4.71777V6.21777" stroke="#4A5683"/>
</g>
<defs>
<clipPath id="clip0_299_1891">
<rect width="12" height="12" fill="white" transform="translate(0.638672 0.217773)"/>
</clipPath>
</defs>
</svg>
