<svg width="78" height="38" viewBox="0 0 78 38" fill="none" xmlns="http://www.w3.org/2000/svg">
<rect width="78" height="38" rx="5" fill="#F1E9ED"/>
<g clip-path="url(#clip0_237_1048)">
<path d="M22.2097 14.2668C22.6444 13.7959 22.8618 13.5604 23.0927 13.423C23.65 13.0916 24.3362 13.0813 24.9028 13.3958C25.1376 13.5262 25.3616 13.7551 25.8097 14.2128C26.2577 14.6705 26.4818 14.8993 26.6094 15.1392C26.9173 15.718 26.9072 16.419 26.5828 16.9882C26.4483 17.2242 26.2178 17.4462 25.7568 17.8902L20.2713 23.1737C19.3976 24.0152 18.9607 24.4359 18.4148 24.6492C17.8688 24.8624 17.2686 24.8467 16.0682 24.8153L15.9049 24.8111C15.5394 24.8015 15.3567 24.7967 15.2505 24.6762C15.1443 24.5556 15.1588 24.3695 15.1878 23.9973L15.2035 23.7952C15.2852 22.7474 15.326 22.2235 15.5306 21.7526C15.7352 21.2817 16.0881 20.8994 16.7939 20.1346L22.2097 14.2668Z" stroke="#721F4B" stroke-width="0.875" stroke-linejoin="round"/>
<path d="M21.5833 14.333L25.6666 18.4163" stroke="#721F4B" stroke-width="0.875" stroke-linejoin="round"/>
<path d="M22.1667 24.833H26.8334" stroke="#721F4B" stroke-width="0.875" stroke-linecap="round" stroke-linejoin="round"/>
</g>
<path d="M44.4 25H37.344V13.432H44.4V14.872H38.912V18.488H43.856V19.88H38.912V23.544H44.4V25ZM49.5681 25.192C47.2961 25.192 45.9201 23.496 45.9201 21.112C45.9201 18.712 47.3121 16.952 49.6321 16.952C50.8321 16.952 51.8401 17.48 52.3681 18.44V13.224H53.8561V25H52.5121L52.3841 23.576C51.8721 24.648 50.8161 25.192 49.5681 25.192ZM49.8721 23.832C51.4081 23.832 52.3521 22.696 52.3521 21.064C52.3521 19.464 51.4081 18.312 49.8721 18.312C48.3361 18.312 47.4401 19.464 47.4401 21.064C47.4401 22.68 48.3361 23.832 49.8721 23.832ZM56.7779 15.32C56.2339 15.32 55.7859 14.872 55.7859 14.328C55.7859 13.768 56.2339 13.336 56.7779 13.336C57.3219 13.336 57.7699 13.768 57.7699 14.328C57.7699 14.872 57.3219 15.32 56.7779 15.32ZM56.0419 25V17.176H57.5459V25H56.0419ZM61.9534 25H60.4494V18.44H58.9134V17.176H60.4494V14.728H61.9534V17.176H63.4894V18.44H61.9534V25Z" fill="#721F4B"/>
<defs>
<clipPath id="clip0_237_1048">
<rect width="14" height="14" fill="white" transform="translate(14 12)"/>
</clipPath>
</defs>
</svg>
