<svg width="20" height="20" viewBox="0 0 20 20" fill="none" xmlns="http://www.w3.org/2000/svg">
<g clip-path="url(#clip0_262_1108)">
<path d="M10.8332 1.66699L1.6665 5.83366" stroke="#192861" stroke-opacity="0.68" stroke-width="1.5" stroke-linecap="round" stroke-linejoin="round"/>
<path d="M10 2.5V18.3333H5.83333C4.26198 18.3333 3.47631 18.3333 2.98816 17.8452C2.5 17.357 2.5 16.5713 2.5 15V5.83333" stroke="#192861" stroke-opacity="0.68" stroke-width="1.5" stroke-linecap="round" stroke-linejoin="round"/>
<path d="M10 5.83301L18.3333 9.99967" stroke="#192861" stroke-opacity="0.68" stroke-width="1.5" stroke-linecap="round" stroke-linejoin="round"/>
<path d="M8.3335 18.3328H14.1668C15.7382 18.3328 16.5238 18.3328 17.012 17.8446C17.5002 17.3564 17.5002 16.5708 17.5002 14.9994V9.58301" stroke="#192861" stroke-opacity="0.68" stroke-width="1.5" stroke-linecap="round" stroke-linejoin="round"/>
<path d="M15 8.33301V5.83301" stroke="#192861" stroke-opacity="0.68" stroke-width="1.5" stroke-linecap="round" stroke-linejoin="round"/>
<path d="M5.8335 9.16699H6.66683M5.8335 12.5003H6.66683" stroke="#192861" stroke-opacity="0.68" stroke-width="1.5" stroke-linecap="round" stroke-linejoin="round"/>
<path d="M13.3335 11.667H14.1668" stroke="#192861" stroke-opacity="0.68" stroke-width="1.5" stroke-linecap="round" stroke-linejoin="round"/>
<path d="M13.75 18.3333V15" stroke="#192861" stroke-opacity="0.68" stroke-width="1.5" stroke-linecap="round" stroke-linejoin="round"/>
</g>
<defs>
<clipPath id="clip0_262_1108">
<rect width="20" height="20" fill="white"/>
</clipPath>
</defs>
</svg>
