<svg width="206" height="48" viewBox="0 0 206 48" fill="none" xmlns="http://www.w3.org/2000/svg">
<rect x="0.5" y="0.5" width="205" height="47" rx="19.5" fill="#F1E9ED"/>
<rect x="0.5" y="0.5" width="205" height="47" rx="19.5" stroke="#F1E9ED"/>
<path d="M39.4165 20.2992C39.6748 17.2992 41.2165 16.0742 44.5915 16.0742H44.6998C48.4248 16.0742 49.9165 17.5659 49.9165 21.2909V26.7242C49.9165 30.4492 48.4248 31.9409 44.6998 31.9409H44.5915C41.2415 31.9409 39.6998 30.7326 39.4248 27.7826" stroke="#721F4B" stroke-width="1.5" stroke-linecap="round" stroke-linejoin="round"/>
<path d="M33.6665 24H44.3998" stroke="#721F4B" stroke-width="1.5" stroke-linecap="round" stroke-linejoin="round"/>
<path d="M42.5415 21.209L45.3332 24.0007L42.5415 26.7923" stroke="#721F4B" stroke-width="1.5" stroke-linecap="round" stroke-linejoin="round"/>
<path d="M65.276 17.986V29.362H71V31H63.512V17.986H65.276ZM71.8945 26.59C71.8945 23.872 73.8385 21.964 76.4845 21.964C79.1125 21.964 81.0565 23.872 81.0565 26.59C81.0565 29.308 79.1125 31.216 76.4845 31.216C73.8385 31.216 71.8945 29.308 71.8945 26.59ZM73.6045 26.59C73.6045 28.426 74.7745 29.704 76.4845 29.704C78.1765 29.704 79.3645 28.426 79.3645 26.59C79.3645 24.754 78.1765 23.476 76.4845 23.476C74.7745 23.476 73.6045 24.754 73.6045 26.59ZM82.3895 26.374C82.3895 23.89 83.9915 21.946 86.5475 21.946C87.9695 21.946 89.0675 22.594 89.6255 23.692L89.7515 22.198H91.2635V30.64C91.2635 33.412 89.5535 35.176 86.8535 35.176C84.4595 35.176 82.8215 33.826 82.4975 31.594H84.1895C84.4055 32.89 85.3775 33.646 86.8535 33.646C88.5095 33.646 89.5895 32.566 89.5895 30.892V29.128C89.0135 30.154 87.8615 30.766 86.4755 30.766C83.9735 30.766 82.3895 28.84 82.3895 26.374ZM84.0815 26.338C84.0815 27.994 85.1075 29.29 86.7635 29.29C88.4735 29.29 89.5175 28.066 89.5175 26.338C89.5175 24.646 88.5095 23.422 86.7815 23.422C85.0895 23.422 84.0815 24.718 84.0815 26.338ZM93.1473 26.59C93.1473 23.872 95.0913 21.964 97.7373 21.964C100.365 21.964 102.309 23.872 102.309 26.59C102.309 29.308 100.365 31.216 97.7373 31.216C95.0913 31.216 93.1473 29.308 93.1473 26.59ZM94.8573 26.59C94.8573 28.426 96.0273 29.704 97.7373 29.704C99.4293 29.704 100.617 28.426 100.617 26.59C100.617 24.754 99.4293 23.476 97.7373 23.476C96.0273 23.476 94.8573 24.754 94.8573 26.59ZM110.073 22.198H111.747V31H110.235L110.055 29.668C109.551 30.586 108.381 31.216 107.085 31.216C105.033 31.216 103.881 29.83 103.881 27.67V22.198H105.573V27.112C105.573 29.002 106.383 29.722 107.679 29.722C109.227 29.722 110.073 28.732 110.073 26.842V22.198ZM116.704 31H115.012V23.62H113.284V22.198H115.012V19.444H116.704V22.198H118.432V23.62H116.704V31Z" fill="#721F4B"/>
</svg>
