<svg width="58" height="55" viewBox="0 0 58 55" fill="none" xmlns="http://www.w3.org/2000/svg">
<g filter="url(#filter0_d_210_536)">
<path d="M54.0039 24.5C54.0039 41.6 48.5039 47 29.0039 47C9.50392 47 4.00391 41.6 4.00391 24.5C4.00391 7.4 9.50392 2 29.0039 2C48.5039 2 54.0039 7.4 54.0039 24.5Z" fill="#F6F1F3"/>
</g>
<path d="M25.6704 31.8409L25.91 31.2638L25.6611 31.1603L25.415 31.2705L25.6704 31.8409ZM22.3371 33.3332L21.7336 33.1708C21.6709 33.4038 21.7479 33.652 21.9314 33.8086C22.1149 33.9653 22.3722 34.0022 22.5924 33.9036L22.3371 33.3332ZM23.1704 30.2365L23.7739 30.3989L23.8717 30.0356L23.5964 29.7792L23.1704 30.2365ZM29.0037 16.0415C24.0873 16.0415 20.0454 19.8362 20.0454 24.5832H21.2954C21.2954 20.5863 24.7165 17.2915 29.0037 17.2915V16.0415ZM36.7121 24.5832C36.7121 28.5801 33.291 31.8748 29.0037 31.8748V33.1248C33.9202 33.1248 37.9621 29.3301 37.9621 24.5832H36.7121ZM29.0037 17.2915C33.291 17.2915 36.7121 20.5863 36.7121 24.5832H37.9621C37.9621 19.8362 33.9202 16.0415 29.0037 16.0415V17.2915ZM25.4308 32.4182C26.5267 32.8732 27.7355 33.1248 29.0037 33.1248V31.8748C27.9017 31.8748 26.8557 31.6563 25.91 31.2638L25.4308 32.4182ZM25.415 31.2705L22.0817 32.7628L22.5924 33.9036L25.9258 32.4114L25.415 31.2705ZM20.0454 24.5832C20.0454 26.9833 21.084 29.1474 22.7444 30.6938L23.5964 29.7792C22.1713 28.4519 21.2954 26.6118 21.2954 24.5832H20.0454ZM22.9406 33.4956L23.7739 30.3989L22.5669 30.0741L21.7336 33.1708L22.9406 33.4956Z" fill="#721F4B"/>
<path d="M29 25H29.0075M32.3296 25H32.3371M25.6704 25H25.6779" stroke="#721F4B" stroke-linecap="square" stroke-linejoin="round"/>
<circle cx="42.0059" cy="5" r="5" fill="#721F4B"/>
<defs>
<filter id="filter0_d_210_536" x="0.00390625" y="2" width="58" height="53" filterUnits="userSpaceOnUse" color-interpolation-filters="sRGB">
<feFlood flood-opacity="0" result="BackgroundImageFix"/>
<feColorMatrix in="SourceAlpha" type="matrix" values="0 0 0 0 0 0 0 0 0 0 0 0 0 0 0 0 0 0 127 0" result="hardAlpha"/>
<feOffset dy="4"/>
<feGaussianBlur stdDeviation="2"/>
<feComposite in2="hardAlpha" operator="out"/>
<feColorMatrix type="matrix" values="0 0 0 0 0.972549 0 0 0 0 0.956863 0 0 0 0 0.964706 0 0 0 1 0"/>
<feBlend mode="normal" in2="BackgroundImageFix" result="effect1_dropShadow_210_536"/>
<feBlend mode="normal" in="SourceGraphic" in2="effect1_dropShadow_210_536" result="shape"/>
</filter>
</defs>
</svg>
