<svg width="20" height="20" viewBox="0 0 20 20" fill="none" xmlns="http://www.w3.org/2000/svg">
<path d="M6.67041 16.8409L6.91004 16.2638L6.66108 16.1603L6.41504 16.2705L6.67041 16.8409ZM3.33708 18.3332L2.73355 18.1708C2.67085 18.4038 2.74786 18.652 2.9314 18.8086C3.11494 18.9653 3.37223 19.0022 3.59244 18.9036L3.33708 18.3332ZM4.17041 15.2365L4.77393 15.3989L4.87172 15.0356L4.59638 14.7792L4.17041 15.2365ZM10.0037 1.0415C5.08732 1.0415 1.04541 4.83625 1.04541 9.58317H2.29541C2.29541 5.58626 5.71647 2.2915 10.0037 2.2915V1.0415ZM17.7121 9.58317C17.7121 13.5801 14.291 16.8748 10.0037 16.8748V18.1248C14.9202 18.1248 18.9621 14.3301 18.9621 9.58317H17.7121ZM10.0037 2.2915C14.291 2.2915 17.7121 5.58626 17.7121 9.58317H18.9621C18.9621 4.83625 14.9202 1.0415 10.0037 1.0415V2.2915ZM6.43078 17.4182C7.52672 17.8732 8.73549 18.1248 10.0037 18.1248V16.8748C8.90174 16.8748 7.85572 16.6563 6.91004 16.2638L6.43078 17.4182ZM6.41504 16.2705L3.08171 17.7628L3.59244 18.9036L6.92578 17.4114L6.41504 16.2705ZM1.04541 9.58317C1.04541 11.9833 2.08403 14.1474 3.74444 15.6938L4.59638 14.7792C3.17129 13.4519 2.29541 11.6118 2.29541 9.58317H1.04541ZM3.9406 18.4956L4.77393 15.3989L3.56689 15.0741L2.73355 18.1708L3.9406 18.4956Z" fill="#721F4B"/>
<path d="M9.99999 10H10.0075M13.3296 10H13.3371M6.67041 10H6.67789" stroke="#721F4B" stroke-linecap="square" stroke-linejoin="round"/>
</svg>
