<svg width="96" height="32" viewBox="0 0 96 32" fill="none" xmlns="http://www.w3.org/2000/svg">
<rect width="96" height="32" rx="5" fill="#F8F4F6"/>
<path d="M14.46 21H12.972V12.228H14.46L17.292 19.212L20.124 12.228H21.636V21H20.148V18.3C20.148 16.536 20.148 16.02 20.232 15.396L18 21H16.584L14.364 15.408C14.448 15.936 14.46 16.764 14.46 17.856V21ZM26.0255 21.156C24.2615 21.156 23.0255 19.872 23.0255 18.036C23.0255 16.176 24.2375 14.892 25.9775 14.892C27.7535 14.892 28.8815 16.08 28.8815 17.928V18.372L24.4175 18.384C24.5255 19.428 25.0775 19.956 26.0495 19.956C26.8535 19.956 27.3815 19.644 27.5495 19.08H28.9055C28.6535 20.376 27.5735 21.156 26.0255 21.156ZM25.9895 16.092C25.1255 16.092 24.5975 16.56 24.4535 17.448H27.4295C27.4295 16.632 26.8655 16.092 25.9895 16.092ZM29.6092 19.2H31.0012C31.0132 19.716 31.3972 20.04 32.0692 20.04C32.7532 20.04 33.1252 19.764 33.1252 19.332C33.1252 19.032 32.9692 18.816 32.4412 18.696L31.3732 18.444C30.3052 18.204 29.7892 17.7 29.7892 16.752C29.7892 15.588 30.7732 14.892 32.1412 14.892C33.4732 14.892 34.3732 15.66 34.3852 16.812H32.9932C32.9812 16.308 32.6452 15.984 32.0812 15.984C31.5052 15.984 31.1692 16.248 31.1692 16.692C31.1692 17.028 31.4332 17.244 31.9372 17.364L33.0052 17.616C34.0012 17.844 34.5052 18.3 34.5052 19.212C34.5052 20.412 33.4852 21.156 32.0212 21.156C30.5452 21.156 29.6092 20.364 29.6092 19.2ZM35.1758 19.2H36.5678C36.5798 19.716 36.9638 20.04 37.6358 20.04C38.3198 20.04 38.6918 19.764 38.6918 19.332C38.6918 19.032 38.5358 18.816 38.0078 18.696L36.9398 18.444C35.8718 18.204 35.3558 17.7 35.3558 16.752C35.3558 15.588 36.3398 14.892 37.7078 14.892C39.0398 14.892 39.9398 15.66 39.9518 16.812H38.5598C38.5478 16.308 38.2118 15.984 37.6478 15.984C37.0718 15.984 36.7358 16.248 36.7358 16.692C36.7358 17.028 36.9998 17.244 37.5038 17.364L38.5718 17.616C39.5678 17.844 40.0718 18.3 40.0718 19.212C40.0718 20.412 39.0518 21.156 37.5878 21.156C36.1118 21.156 35.1758 20.364 35.1758 19.2ZM42.9625 21.156C41.7025 21.156 40.9345 20.424 40.9345 19.308C40.9345 18.216 41.7265 17.532 43.1305 17.424L44.9065 17.292V17.16C44.9065 16.356 44.4265 16.032 43.6825 16.032C42.8185 16.032 42.3385 16.392 42.3385 17.016H41.0905C41.0905 15.732 42.1465 14.892 43.7545 14.892C45.3505 14.892 46.3345 15.756 46.3345 17.4V21H45.0505L44.9425 20.124C44.6905 20.736 43.8865 21.156 42.9625 21.156ZM43.4425 20.052C44.3425 20.052 44.9185 19.512 44.9185 18.6V18.288L43.6825 18.384C42.7705 18.468 42.4225 18.768 42.4225 19.248C42.4225 19.788 42.7825 20.052 43.4425 20.052ZM47.4488 17.904C47.4488 16.176 48.5768 14.88 50.2688 14.88C51.1568 14.88 51.8528 15.252 52.2008 15.888L52.2848 15.072H53.6408V20.7C53.6408 22.68 52.4528 23.916 50.5328 23.916C48.8288 23.916 47.6648 22.944 47.4848 21.36H48.9488C49.0448 22.128 49.6328 22.584 50.5328 22.584C51.5408 22.584 52.1888 21.948 52.1888 20.964V19.98C51.8168 20.532 51.0848 20.88 50.2328 20.88C48.5528 20.88 47.4488 19.62 47.4488 17.904ZM48.9248 17.868C48.9248 18.864 49.5608 19.608 50.5208 19.608C51.5288 19.608 52.1528 18.9 52.1528 17.868C52.1528 16.86 51.5408 16.164 50.5208 16.164C49.5488 16.164 48.9248 16.896 48.9248 17.868ZM57.8198 21.156C56.0558 21.156 54.8198 19.872 54.8198 18.036C54.8198 16.176 56.0318 14.892 57.7718 14.892C59.5478 14.892 60.6758 16.08 60.6758 17.928V18.372L56.2118 18.384C56.3198 19.428 56.8718 19.956 57.8438 19.956C58.6478 19.956 59.1758 19.644 59.3438 19.08H60.6998C60.4478 20.376 59.3678 21.156 57.8198 21.156ZM57.7838 16.092C56.9198 16.092 56.3918 16.56 56.2478 17.448H59.2238C59.2238 16.632 58.6598 16.092 57.7838 16.092Z" fill="#721F4B"/>
<g clip-path="url(#clip0_210_816)">
<path d="M74.6665 20.7891L74.8342 20.3851L74.66 20.3127L74.4877 20.3898L74.6665 20.7891ZM72.3332 21.8337L71.9107 21.72C71.8668 21.8831 71.9207 22.0568 72.0492 22.1664C72.1777 22.2761 72.3578 22.302 72.5119 22.233L72.3332 21.8337ZM72.9165 19.666L73.339 19.7797L73.4074 19.5254L73.2147 19.3459L72.9165 19.666ZM76.9998 9.72949C73.5583 9.72949 70.729 12.3858 70.729 15.7087H71.604C71.604 12.9108 73.9987 10.6045 76.9998 10.6045V9.72949ZM82.3957 15.7087C82.3957 18.5065 80.0009 20.8128 76.9998 20.8128V21.6878C80.4413 21.6878 83.2707 19.0315 83.2707 15.7087H82.3957ZM76.9998 10.6045C80.0009 10.6045 82.3957 12.9108 82.3957 15.7087H83.2707C83.2707 12.3858 80.4413 9.72949 76.9998 9.72949V10.6045ZM74.4988 21.1932C75.2659 21.5117 76.1121 21.6878 76.9998 21.6878V20.8128C76.2284 20.8128 75.4962 20.6599 74.8342 20.3851L74.4988 21.1932ZM74.4877 20.3898L72.1544 21.4344L72.5119 22.233L74.8453 21.1884L74.4877 20.3898ZM70.729 15.7087C70.729 17.3887 71.456 18.9036 72.6183 19.9861L73.2147 19.3459C72.2171 18.4168 71.604 17.1287 71.604 15.7087H70.729ZM72.7556 21.9474L73.339 19.7797L72.494 19.5523L71.9107 21.72L72.7556 21.9474Z" fill="#721F4B"/>
<path d="M76.9972 16H77.0025M79.3279 16H79.3332M74.6665 16H74.6717" stroke="#721F4B" stroke-width="1.5" stroke-linecap="square" stroke-linejoin="round"/>
</g>
<defs>
<clipPath id="clip0_210_816">
<rect width="14" height="14" fill="white" transform="translate(70 9)"/>
</clipPath>
</defs>
</svg>
