<svg width="54" height="54" viewBox="0 0 54 54" fill="none" xmlns="http://www.w3.org/2000/svg">
<g filter="url(#filter0_d_1050_1013)">
<path d="M54.0007 23C54.0007 40.1 48.5007 45.5 29.0007 45.5C9.50075 45.5 4.00073 40.1 4.00073 23C4.00073 5.9 9.50075 0.5 29.0007 0.5C48.5007 0.5 54.0007 5.9 54.0007 23Z" fill="#F8F9FA"/>
</g>
<path d="M25.6675 30.3409L25.9071 29.7638L25.6581 29.6603L25.4121 29.7705L25.6675 30.3409ZM22.3341 31.8332L21.7306 31.6708C21.6679 31.9038 21.7449 32.152 21.9285 32.3086C22.112 32.4653 22.3693 32.5022 22.5895 32.4036L22.3341 31.8332ZM23.1675 28.7365L23.771 28.8989L23.8688 28.5356L23.5934 28.2792L23.1675 28.7365ZM29.0008 14.5415C24.0844 14.5415 20.0425 18.3362 20.0425 23.0832H21.2925C21.2925 19.0863 24.7135 15.7915 29.0008 15.7915V14.5415ZM36.7091 23.0832C36.7091 27.0801 33.2881 30.3748 29.0008 30.3748V31.6248C33.9172 31.6248 37.9591 27.8301 37.9591 23.0832H36.7091ZM29.0008 15.7915C33.2881 15.7915 36.7091 19.0863 36.7091 23.0832H37.9591C37.9591 18.3362 33.9172 14.5415 29.0008 14.5415V15.7915ZM25.4278 30.9182C26.5238 31.3732 27.7326 31.6248 29.0008 31.6248V30.3748C27.8988 30.3748 26.8528 30.1563 25.9071 29.7638L25.4278 30.9182ZM25.4121 29.7705L22.0788 31.2628L22.5895 32.4036L25.9228 30.9114L25.4121 29.7705ZM20.0425 23.0832C20.0425 25.4833 21.0811 27.6474 22.7415 29.1938L23.5934 28.2792C22.1684 26.9519 21.2925 25.1118 21.2925 23.0832H20.0425ZM22.9377 31.9956L23.771 28.8989L22.564 28.5741L21.7306 31.6708L22.9377 31.9956Z" fill="#192861"/>
<path d="M28.9971 23.5H29.0046M32.3266 23.5H32.3341M25.6675 23.5H25.675" stroke="#192861" stroke-linecap="square" stroke-linejoin="round"/>
<defs>
<filter id="filter0_d_1050_1013" x="0.000732422" y="0.5" width="58" height="53" filterUnits="userSpaceOnUse" color-interpolation-filters="sRGB">
<feFlood flood-opacity="0" result="BackgroundImageFix"/>
<feColorMatrix in="SourceAlpha" type="matrix" values="0 0 0 0 0 0 0 0 0 0 0 0 0 0 0 0 0 0 127 0" result="hardAlpha"/>
<feOffset dy="4"/>
<feGaussianBlur stdDeviation="2"/>
<feComposite in2="hardAlpha" operator="out"/>
<feColorMatrix type="matrix" values="0 0 0 0 0.972549 0 0 0 0 0.976471 0 0 0 0 0.980392 0 0 0 1 0"/>
<feBlend mode="normal" in2="BackgroundImageFix" result="effect1_dropShadow_1050_1013"/>
<feBlend mode="normal" in="SourceGraphic" in2="effect1_dropShadow_1050_1013" result="shape"/>
</filter>
</defs>
</svg>
