<svg width="221" height="62" viewBox="0 0 221 62" fill="none" xmlns="http://www.w3.org/2000/svg">
<rect width="221" height="62" rx="5" fill="#F8F4F6"/>
<path d="M37.92 32.968H35.344V37H33.296V25.304H37.92C40.272 25.304 41.792 26.84 41.792 29.128C41.792 31.384 40.256 32.968 37.92 32.968ZM37.52 27.128H35.344V31.144H37.488C38.896 31.144 39.648 30.392 39.648 29.112C39.648 27.832 38.88 27.128 37.52 27.128ZM45.2822 37.208C43.6022 37.208 42.5782 36.232 42.5782 34.744C42.5782 33.288 43.6342 32.376 45.5062 32.232L47.8742 32.056V31.88C47.8742 30.808 47.2343 30.376 46.2422 30.376C45.0903 30.376 44.4502 30.856 44.4502 31.688H42.7862C42.7862 29.976 44.1942 28.856 46.3383 28.856C48.4662 28.856 49.7783 30.008 49.7783 32.2V37H48.0662L47.9223 35.832C47.5862 36.648 46.5142 37.208 45.2822 37.208ZM45.9222 35.736C47.1223 35.736 47.8903 35.016 47.8903 33.8V33.384L46.2422 33.512C45.0262 33.624 44.5622 34.024 44.5622 34.664C44.5622 35.384 45.0422 35.736 45.9222 35.736ZM50.8051 40.664V39.032H51.9731C52.7411 39.032 53.2211 38.856 53.5571 37.928L53.7811 37.336L50.5971 29.096H52.6611L54.6931 34.856L56.8371 29.096H58.8531L54.9811 38.76C54.3891 40.232 53.5571 40.84 52.2611 40.84C51.7171 40.84 51.2371 40.776 50.8051 40.664ZM71.8584 37H64.5944V25.304H71.8584V27.192H66.6424V30.2H71.3144V32.008H66.6424V35.112H71.8584V37ZM75.7748 37H73.8388V25.096H75.7748V37ZM81.3744 37.208C79.0224 37.208 77.3744 35.496 77.3744 33.048C77.3744 30.568 78.9904 28.856 81.3104 28.856C83.6784 28.856 85.1824 30.44 85.1824 32.904V33.496L79.2304 33.512C79.3744 34.904 80.1104 35.608 81.4064 35.608C82.4784 35.608 83.1824 35.192 83.4064 34.44H85.2144C84.8784 36.168 83.4384 37.208 81.3744 37.208ZM81.3264 30.456C80.1744 30.456 79.4704 31.08 79.2784 32.264H83.2464C83.2464 31.176 82.4944 30.456 81.3264 30.456ZM86.2966 33.032C86.2966 30.584 87.9126 28.856 90.2486 28.856C92.4086 28.856 93.8806 30.056 94.0886 31.96H92.1366C91.9126 31.064 91.2566 30.6 90.3286 30.6C89.0806 30.6 88.2486 31.544 88.2486 33.032C88.2486 34.52 89.0166 35.448 90.2646 35.448C91.2406 35.448 91.9286 34.968 92.1366 34.104H94.1046C93.8646 35.944 92.3286 37.208 90.2646 37.208C87.8646 37.208 86.2966 35.544 86.2966 33.032ZM98.2615 37H96.3095V30.728H94.7895V29.096H96.3095V26.632H98.2615V29.096H99.7975V30.728H98.2615V37ZM105.987 29.064V30.872H105.267C103.859 30.872 102.979 31.624 102.979 33.16V37H101.027V29.112H102.867L102.979 30.264C103.315 29.48 104.067 28.952 105.123 28.952C105.395 28.952 105.667 28.984 105.987 29.064ZM108.3 27.512C107.628 27.512 107.1 26.984 107.1 26.328C107.1 25.672 107.628 25.16 108.3 25.16C108.94 25.16 109.468 25.672 109.468 26.328C109.468 26.984 108.94 27.512 108.3 27.512ZM107.324 37V29.096H109.276V37H107.324ZM110.845 33.032C110.845 30.584 112.461 28.856 114.797 28.856C116.957 28.856 118.429 30.056 118.637 31.96H116.685C116.461 31.064 115.805 30.6 114.877 30.6C113.629 30.6 112.797 31.544 112.797 33.032C112.797 34.52 113.565 35.448 114.813 35.448C115.789 35.448 116.477 34.968 116.685 34.104H118.653C118.413 35.944 116.877 37.208 114.813 37.208C112.413 37.208 110.845 35.544 110.845 33.032ZM121.098 27.512C120.426 27.512 119.898 26.984 119.898 26.328C119.898 25.672 120.426 25.16 121.098 25.16C121.738 25.16 122.266 25.672 122.266 26.328C122.266 26.984 121.738 27.512 121.098 27.512ZM120.122 37V29.096H122.074V37H120.122ZM126.795 37H124.843V30.728H123.323V29.096H124.843V26.632H126.795V29.096H128.331V30.728H126.795V37ZM128.872 40.664V39.032H130.04C130.808 39.032 131.288 38.856 131.624 37.928L131.848 37.336L128.664 29.096H130.728L132.76 34.856L134.904 29.096H136.92L133.048 38.76C132.456 40.232 131.624 40.84 130.328 40.84C129.784 40.84 129.304 40.776 128.872 40.664ZM142.661 37V25.304H147.317C149.621 25.304 151.029 26.504 151.029 28.456C151.029 29.752 150.453 30.68 149.349 31.144C150.581 31.544 151.205 32.472 151.205 33.832C151.205 35.832 149.813 37 147.397 37H142.661ZM147.141 27.112H144.709V30.296H147.189C148.309 30.296 148.933 29.704 148.933 28.664C148.933 27.656 148.293 27.112 147.141 27.112ZM147.317 32.024H144.709V35.192H147.317C148.469 35.192 149.109 34.632 149.109 33.576C149.109 32.584 148.453 32.024 147.317 32.024ZM155.147 25.304V37H153.099V25.304H155.147ZM159.436 37H157.5V25.096H159.436V37ZM163.468 37H161.532V25.096H163.468V37Z" fill="#721F4B"/>
<path d="M184.333 27.667L177 35.0003" stroke="#721F4B" stroke-linecap="round"/>
<path d="M180.333 27.0877C180.333 27.0877 184.089 26.7711 184.659 27.341C185.229 27.911 184.912 31.6667 184.912 31.6667" stroke="#721F4B" stroke-linecap="round" stroke-linejoin="round"/>
</svg>
