<svg width="85" height="28" viewBox="0 0 85 28" fill="none" xmlns="http://www.w3.org/2000/svg">
<rect width="85" height="28" rx="5" fill="#F8F4F6"/>
<path d="M18.7961 8.92841C19.2618 8.4238 19.4947 8.1715 19.7421 8.02433C20.3392 7.66922 21.0744 7.65818 21.6815 7.9952C21.9331 8.13487 22.1731 8.38007 22.6531 8.87047C23.1332 9.36087 23.3733 9.60607 23.5099 9.86308C23.8399 10.4832 23.8291 11.2342 23.4814 11.8442C23.3374 12.097 23.0904 12.3349 22.5964 12.8106L16.7191 18.4714C15.7831 19.3731 15.315 19.8239 14.73 20.0523C14.1451 20.2808 13.502 20.264 12.2159 20.2304L12.0409 20.2258C11.6493 20.2156 11.4535 20.2104 11.3397 20.0813C11.2259 19.9521 11.2415 19.7527 11.2726 19.3539L11.2894 19.1373C11.3769 18.0147 11.4206 17.4534 11.6398 16.9489C11.859 16.4443 12.2372 16.0347 12.9934 15.2153L18.7961 8.92841Z" stroke="#721F4B" stroke-linejoin="round"/>
<path d="M18.125 9L22.5 13.375" stroke="#721F4B" stroke-linejoin="round"/>
<path d="M18.75 20.25H23.75" stroke="#721F4B" stroke-linecap="round" stroke-linejoin="round"/>
<path d="M35.948 15.916V10.324H37.124V15.844C37.124 17.236 37.892 18.004 39.272 18.004C40.64 18.004 41.396 17.224 41.396 15.844V10.324H42.584V15.916C42.584 17.908 41.312 19.144 39.272 19.144C37.22 19.144 35.948 17.92 35.948 15.916ZM44.3593 21.628V13.132H45.3793L45.4633 14.188C45.8593 13.384 46.6513 12.964 47.5873 12.964C49.2673 12.964 50.3113 14.224 50.3113 16.024C50.3113 17.812 49.3273 19.156 47.5873 19.156C46.6513 19.156 45.8713 18.76 45.4873 18.04V21.628H44.3593ZM45.4993 16.072C45.4993 17.272 46.1953 18.136 47.3473 18.136C48.4993 18.136 49.1833 17.272 49.1833 16.072C49.1833 14.86 48.4993 13.996 47.3473 13.996C46.1953 13.996 45.4993 14.848 45.4993 16.072ZM53.9186 19.144C52.2146 19.144 51.1826 17.872 51.1826 16.084C51.1826 14.284 52.2266 12.964 53.9666 12.964C54.8666 12.964 55.6226 13.36 56.0186 14.08V10.168H57.1346V19H56.1266L56.0306 17.932C55.6466 18.736 54.8546 19.144 53.9186 19.144ZM54.1466 18.124C55.2986 18.124 56.0066 17.272 56.0066 16.048C56.0066 14.848 55.2986 13.984 54.1466 13.984C52.9946 13.984 52.3226 14.848 52.3226 16.048C52.3226 17.26 52.9946 18.124 54.1466 18.124ZM60.4899 19.144C59.2299 19.144 58.4859 18.436 58.4859 17.368C58.4859 16.288 59.2899 15.616 60.6699 15.508L62.5179 15.364V15.196C62.5179 14.212 61.9299 13.864 61.1379 13.864C60.1899 13.864 59.6499 14.284 59.6499 14.992H58.6659C58.6659 13.768 59.6739 12.964 61.1859 12.964C62.6379 12.964 63.6219 13.732 63.6219 15.316V19H62.6619L62.5419 18.052C62.2419 18.724 61.4379 19.144 60.4899 19.144ZM60.8139 18.268C61.8819 18.268 62.5299 17.572 62.5299 16.468V16.156L61.0299 16.276C60.0339 16.372 59.6259 16.756 59.6259 17.332C59.6259 17.956 60.0819 18.268 60.8139 18.268ZM66.7583 19H65.6303V14.08H64.4783V13.132H65.6303V11.296H66.7583V13.132H67.9103V14.08H66.7583V19ZM71.408 19.144C69.68 19.144 68.492 17.896 68.492 16.072C68.492 14.236 69.656 12.964 71.36 12.964C73.028 12.964 74.12 14.116 74.12 15.856V16.276L69.584 16.288C69.668 17.524 70.316 18.208 71.432 18.208C72.308 18.208 72.884 17.848 73.076 17.176H74.132C73.844 18.436 72.86 19.144 71.408 19.144ZM71.36 13.912C70.376 13.912 69.752 14.5 69.608 15.532H72.992C72.992 14.56 72.356 13.912 71.36 13.912Z" fill="#721F4B"/>
</svg>
