<svg width="20" height="22" viewBox="0 0 20 22" fill="none" xmlns="http://www.w3.org/2000/svg">
<path d="M15.4211 17.8332H15.7887C16.6511 17.8332 17.337 17.4403 17.9529 16.8908C19.5175 15.495 15.8396 14.083 14.584 14.083" stroke="#192861" stroke-width="1.5" stroke-linecap="round" stroke-linejoin="round"/>
<path d="M12.5 6.2243C12.6892 6.18677 12.8857 6.16699 13.0873 6.16699C14.6039 6.16699 15.8333 7.28628 15.8333 8.66699C15.8333 10.0477 14.6039 11.167 13.0873 11.167C12.8857 11.167 12.6892 11.1472 12.5 11.1097" stroke="#192861" stroke-width="1.5" stroke-linecap="round"/>
<path d="M3.98482 14.593C3.06783 15.1195 0.663568 16.1946 2.12793 17.5398C2.84326 18.197 3.63995 18.667 4.64158 18.667H10.3571C11.3588 18.667 12.1554 18.197 12.8708 17.5398C14.3351 16.1946 11.9308 15.1195 11.0138 14.593C8.8636 13.3583 6.13512 13.3583 3.98482 14.593Z" stroke="#192861" stroke-width="1.5" stroke-linecap="round" stroke-linejoin="round"/>
<path d="M10.8327 7.83333C10.8327 9.67428 9.34027 11.1667 7.49935 11.1667C5.6584 11.1667 4.16602 9.67428 4.16602 7.83333C4.16602 5.99238 5.6584 4.5 7.49935 4.5C9.34027 4.5 10.8327 5.99238 10.8327 7.83333Z" stroke="#192861" stroke-width="1.5"/>
</svg>
