<svg width="1657" height="857" viewBox="0 0 1657 857" fill="none" xmlns="http://www.w3.org/2000/svg">
<rect x="494" width="639" height="65" rx="10" fill="#721F4B"/>
<rect x="651" y="147" width="65" height="380" rx="10" fill="#721F4B"/>
<rect x="781" y="147" width="65" height="380" rx="10" fill="#721F4B"/>
<rect x="911" y="147" width="65" height="380" rx="10" fill="#721F4B"/>
<path d="M571.276 108.614C568.736 102.06 573.572 95 580.6 95H1046.4C1053.43 95 1058.26 102.06 1055.72 108.614L1038.28 153.614C1036.79 157.463 1033.09 160 1028.96 160H598.04C593.912 160 590.208 157.463 588.716 153.614L571.276 108.614Z" fill="#721F4B"/>
<path d="M74.3066 654.154L93.9258 660.375C90.918 671.312 85.9049 679.447 78.8867 684.779C71.9141 690.066 63.0501 692.709 52.2949 692.709C38.9876 692.709 28.0501 688.174 19.4824 679.105C10.9147 669.991 6.63086 657.549 6.63086 641.781C6.63086 625.102 10.9375 612.159 19.5508 602.953C28.1641 593.702 39.4889 589.076 53.5254 589.076C65.7845 589.076 75.7422 592.699 83.3984 599.945C87.9557 604.229 91.3737 610.382 93.6523 618.402L73.623 623.188C72.4382 617.992 69.9544 613.891 66.1719 610.883C62.4349 607.875 57.8776 606.371 52.5 606.371C45.0716 606.371 39.0332 609.037 34.3848 614.369C29.7819 619.701 27.4805 628.337 27.4805 640.277C27.4805 652.947 29.7591 661.97 34.3164 667.348C38.8737 672.725 44.7982 675.414 52.0898 675.414C57.4674 675.414 62.0931 673.705 65.9668 670.287C69.8405 666.869 72.6204 661.492 74.3066 654.154ZM111.361 691V590.785H130.57V691H111.361ZM150.466 608.559V590.785H169.675V608.559H150.466ZM150.466 691V618.402H169.675V691H150.466ZM255.606 691H236.397V653.949C236.397 646.111 235.986 641.052 235.166 638.773C234.346 636.449 233.001 634.649 231.133 633.373C229.31 632.097 227.1 631.459 224.502 631.459C221.175 631.459 218.19 632.37 215.547 634.193C212.904 636.016 211.081 638.432 210.078 641.439C209.121 644.447 208.643 650.007 208.643 658.119V691H189.434V618.402H207.275V629.066C213.61 620.863 221.585 616.762 231.201 616.762C235.44 616.762 239.313 617.536 242.822 619.086C246.331 620.59 248.975 622.527 250.752 624.896C252.575 627.266 253.828 629.955 254.512 632.963C255.241 635.971 255.606 640.277 255.606 645.883V691ZM308.587 618.402V633.715H295.462V662.973C295.462 668.897 295.576 672.361 295.804 673.363C296.078 674.32 296.647 675.118 297.513 675.756C298.425 676.394 299.518 676.713 300.794 676.713C302.572 676.713 305.147 676.098 308.519 674.867L310.16 689.77C305.693 691.684 300.635 692.641 294.984 692.641C291.52 692.641 288.399 692.071 285.619 690.932C282.839 689.747 280.788 688.243 279.466 686.42C278.19 684.551 277.302 682.045 276.8 678.9C276.39 676.667 276.185 672.156 276.185 665.365V633.715H267.367V618.402H276.185V603.979L295.462 592.768V618.402H308.587ZM317.614 653.676C317.614 647.296 319.186 641.12 322.331 635.15C325.475 629.18 329.919 624.623 335.661 621.479C341.449 618.334 347.897 616.762 355.007 616.762C365.99 616.762 374.99 620.339 382.009 627.494C389.027 634.604 392.536 643.604 392.536 654.496C392.536 665.479 388.981 674.594 381.872 681.84C374.808 689.04 365.899 692.641 355.143 692.641C348.49 692.641 342.132 691.137 336.071 688.129C330.055 685.121 325.475 680.723 322.331 674.936C319.186 669.102 317.614 662.016 317.614 653.676ZM337.302 654.701C337.302 661.902 339.011 667.416 342.429 671.244C345.846 675.072 350.062 676.986 355.075 676.986C360.088 676.986 364.281 675.072 367.653 671.244C371.071 667.416 372.78 661.856 372.78 654.564C372.78 647.455 371.071 641.986 367.653 638.158C364.281 634.33 360.088 632.416 355.075 632.416C350.062 632.416 345.846 634.33 342.429 638.158C339.011 641.986 337.302 647.501 337.302 654.701ZM473.819 691H454.61V653.949C454.61 646.111 454.199 641.052 453.379 638.773C452.559 636.449 451.214 634.649 449.346 633.373C447.523 632.097 445.313 631.459 442.715 631.459C439.388 631.459 436.403 632.37 433.76 634.193C431.117 636.016 429.294 638.432 428.291 641.439C427.334 644.447 426.856 650.007 426.856 658.119V691H407.647V618.402H425.488V629.066C431.823 620.863 439.798 616.762 449.414 616.762C453.652 616.762 457.526 617.536 461.035 619.086C464.544 620.59 467.188 622.527 468.965 624.896C470.788 627.266 472.041 629.955 472.725 632.963C473.454 635.971 473.819 640.277 473.819 645.883V691ZM493.031 591.059H512.24V604.799C512.24 610.359 511.761 614.757 510.804 617.992C509.847 621.182 508.024 624.053 505.335 626.605C502.692 629.158 499.32 631.163 495.218 632.621L491.459 624.691C495.332 623.415 498.089 621.661 499.73 619.428C501.371 617.195 502.237 614.141 502.328 610.268H493.031V591.059ZM520.651 670.287L539.929 667.348C540.749 671.085 542.412 673.933 544.919 675.893C547.425 677.807 550.934 678.764 555.446 678.764C560.414 678.764 564.151 677.852 566.657 676.029C568.343 674.753 569.186 673.044 569.186 670.902C569.186 669.444 568.731 668.236 567.819 667.279C566.862 666.368 564.72 665.525 561.393 664.75C545.899 661.332 536.078 658.21 531.931 655.385C526.188 651.465 523.317 646.02 523.317 639.047C523.317 632.758 525.801 627.471 530.768 623.188C535.736 618.904 543.438 616.762 553.874 616.762C563.809 616.762 571.192 618.38 576.022 621.615C580.853 624.851 584.18 629.636 586.003 635.971L567.888 639.32C567.113 636.495 565.632 634.33 563.444 632.826C561.302 631.322 558.226 630.57 554.216 630.57C549.157 630.57 545.534 631.277 543.347 632.689C541.888 633.692 541.159 634.991 541.159 636.586C541.159 637.953 541.797 639.115 543.073 640.072C544.805 641.348 550.775 643.148 560.983 645.473C571.237 647.797 578.392 650.645 582.448 654.018C586.459 657.436 588.464 662.198 588.464 668.305C588.464 674.958 585.684 680.678 580.124 685.463C574.564 690.248 566.338 692.641 555.446 692.641C545.557 692.641 537.718 690.635 531.931 686.625C526.188 682.615 522.429 677.169 520.651 670.287ZM644.662 590.785H681.644C689.984 590.785 696.341 591.423 700.716 592.699C706.595 594.431 711.631 597.507 715.824 601.928C720.017 606.348 723.207 611.771 725.394 618.197C727.582 624.577 728.675 632.462 728.675 641.85C728.675 650.098 727.65 657.208 725.599 663.178C723.093 670.469 719.515 676.371 714.867 680.883C711.358 684.301 706.618 686.967 700.648 688.881C696.182 690.294 690.212 691 682.738 691H644.662V590.785ZM664.896 607.738V674.115H680.004C685.655 674.115 689.733 673.796 692.24 673.158C695.521 672.338 698.233 670.948 700.375 668.988C702.562 667.029 704.339 663.816 705.707 659.35C707.074 654.838 707.757 648.708 707.757 640.961C707.757 633.214 707.074 627.266 705.707 623.119C704.339 618.972 702.425 615.736 699.964 613.412C697.504 611.088 694.382 609.516 690.599 608.695C687.774 608.057 682.237 607.738 673.988 607.738H664.896ZM787.946 667.895L807.087 671.107C804.626 678.126 800.729 683.48 795.397 687.172C790.111 690.818 783.48 692.641 775.505 692.641C762.881 692.641 753.539 688.516 747.477 680.268C742.692 673.66 740.3 665.32 740.3 655.248C740.3 643.217 743.444 633.806 749.733 627.016C756.022 620.18 763.975 616.762 773.591 616.762C784.392 616.762 792.914 620.339 799.157 627.494C805.401 634.604 808.386 645.518 808.112 660.238H759.987C760.124 665.935 761.673 670.378 764.636 673.568C767.598 676.713 771.289 678.285 775.71 678.285C778.718 678.285 781.247 677.465 783.298 675.824C785.349 674.184 786.898 671.54 787.946 667.895ZM789.04 648.48C788.903 642.921 787.468 638.705 784.733 635.834C781.999 632.917 778.672 631.459 774.753 631.459C770.56 631.459 767.097 632.986 764.362 636.039C761.628 639.092 760.283 643.24 760.329 648.48H789.04ZM843.936 691L814.678 618.402H834.844L848.516 655.453L852.481 667.826C853.529 664.682 854.19 662.608 854.463 661.605C855.101 659.555 855.785 657.504 856.514 655.453L870.323 618.402H890.078L861.231 691H843.936ZM944.086 667.895L963.226 671.107C960.765 678.126 956.869 683.48 951.537 687.172C946.25 690.818 939.619 692.641 931.644 692.641C919.021 692.641 909.678 688.516 903.617 680.268C898.832 673.66 896.439 665.32 896.439 655.248C896.439 643.217 899.584 633.806 905.873 627.016C912.162 620.18 920.114 616.762 929.73 616.762C940.531 616.762 949.053 620.339 955.297 627.494C961.54 634.604 964.525 645.518 964.252 660.238H916.127C916.263 665.935 917.813 670.378 920.775 673.568C923.737 676.713 927.429 678.285 931.849 678.285C934.857 678.285 937.386 677.465 939.437 675.824C941.488 674.184 943.037 671.54 944.086 667.895ZM945.179 648.48C945.043 642.921 943.607 638.705 940.873 635.834C938.138 632.917 934.812 631.459 930.892 631.459C926.7 631.459 923.236 632.986 920.502 636.039C917.767 639.092 916.423 643.24 916.468 648.48H945.179ZM980.114 691V590.785H999.323V691H980.114ZM1014.78 653.676C1014.78 647.296 1016.35 641.12 1019.49 635.15C1022.64 629.18 1027.08 624.623 1032.82 621.479C1038.61 618.334 1045.06 616.762 1052.17 616.762C1063.15 616.762 1072.15 620.339 1079.17 627.494C1086.19 634.604 1089.7 643.604 1089.7 654.496C1089.7 665.479 1086.14 674.594 1079.03 681.84C1071.97 689.04 1063.06 692.641 1052.31 692.641C1045.65 692.641 1039.29 691.137 1033.23 688.129C1027.22 685.121 1022.64 680.723 1019.49 674.936C1016.35 669.102 1014.78 662.016 1014.78 653.676ZM1034.46 654.701C1034.46 661.902 1036.17 667.416 1039.59 671.244C1043.01 675.072 1047.22 676.986 1052.24 676.986C1057.25 676.986 1061.44 675.072 1064.81 671.244C1068.23 667.416 1069.94 661.856 1069.94 654.564C1069.94 647.455 1068.23 641.986 1064.81 638.158C1061.44 634.33 1057.25 632.416 1052.24 632.416C1047.22 632.416 1043.01 634.33 1039.59 638.158C1036.17 641.986 1034.46 647.501 1034.46 654.701ZM1104.4 618.402H1122.31V629.066C1124.63 625.421 1127.78 622.458 1131.74 620.18C1135.71 617.901 1140.1 616.762 1144.94 616.762C1153.37 616.762 1160.52 620.066 1166.4 626.674C1172.28 633.282 1175.22 642.488 1175.22 654.291C1175.22 666.413 1172.26 675.847 1166.33 682.592C1160.41 689.291 1153.23 692.641 1144.8 692.641C1140.79 692.641 1137.14 691.843 1133.86 690.248C1130.63 688.653 1127.21 685.919 1123.61 682.045V718.617H1104.4V618.402ZM1123.4 653.471C1123.4 661.628 1125.02 667.667 1128.26 671.586C1131.49 675.46 1135.43 677.396 1140.08 677.396C1144.55 677.396 1148.26 675.619 1151.22 672.064C1154.19 668.464 1155.67 662.585 1155.67 654.428C1155.67 646.817 1154.14 641.166 1151.09 637.475C1148.03 633.783 1144.25 631.938 1139.74 631.938C1135.05 631.938 1131.15 633.76 1128.05 637.406C1124.95 641.007 1123.4 646.361 1123.4 653.471ZM1232.71 667.895L1251.85 671.107C1249.39 678.126 1245.5 683.48 1240.16 687.172C1234.88 690.818 1228.25 692.641 1220.27 692.641C1207.65 692.641 1198.3 688.516 1192.24 680.268C1187.46 673.66 1185.07 665.32 1185.07 655.248C1185.07 643.217 1188.21 633.806 1194.5 627.016C1200.79 620.18 1208.74 616.762 1218.36 616.762C1229.16 616.762 1237.68 620.339 1243.92 627.494C1250.17 634.604 1253.15 645.518 1252.88 660.238H1204.75C1204.89 665.935 1206.44 670.378 1209.4 673.568C1212.36 676.713 1216.06 678.285 1220.48 678.285C1223.48 678.285 1226.01 677.465 1228.06 675.824C1230.11 674.184 1231.66 671.54 1232.71 667.895ZM1233.81 648.48C1233.67 642.921 1232.23 638.705 1229.5 635.834C1226.76 632.917 1223.44 631.459 1219.52 631.459C1215.33 631.459 1211.86 632.986 1209.13 636.039C1206.39 639.092 1205.05 643.24 1205.09 648.48H1233.81ZM1287.13 691H1267.92V618.402H1285.76V628.725C1288.82 623.848 1291.55 620.635 1293.97 619.086C1296.43 617.536 1299.21 616.762 1302.31 616.762C1306.68 616.762 1310.9 617.969 1314.95 620.385L1309 637.133C1305.77 635.036 1302.76 633.988 1299.98 633.988C1297.29 633.988 1295.01 634.74 1293.15 636.244C1291.28 637.702 1289.8 640.368 1288.7 644.242C1287.65 648.116 1287.13 656.228 1287.13 668.578V691ZM1316.66 670.287L1335.94 667.348C1336.76 671.085 1338.43 673.933 1340.93 675.893C1343.44 677.807 1346.95 678.764 1351.46 678.764C1356.43 678.764 1360.16 677.852 1362.67 676.029C1364.36 674.753 1365.2 673.044 1365.2 670.902C1365.2 669.444 1364.74 668.236 1363.83 667.279C1362.87 666.368 1360.73 665.525 1357.41 664.75C1341.91 661.332 1332.09 658.21 1327.94 655.385C1322.2 651.465 1319.33 646.02 1319.33 639.047C1319.33 632.758 1321.81 627.471 1326.78 623.188C1331.75 618.904 1339.45 616.762 1349.89 616.762C1359.82 616.762 1367.2 618.38 1372.04 621.615C1376.87 624.851 1380.19 629.636 1382.02 635.971L1363.9 639.32C1363.13 636.495 1361.64 634.33 1359.46 632.826C1357.31 631.322 1354.24 630.57 1350.23 630.57C1345.17 630.57 1341.55 631.277 1339.36 632.689C1337.9 633.692 1337.17 634.991 1337.17 636.586C1337.17 637.953 1337.81 639.115 1339.09 640.072C1340.82 641.348 1346.79 643.148 1357 645.473C1367.25 647.797 1374.4 650.645 1378.46 654.018C1382.47 657.436 1384.48 662.198 1384.48 668.305C1384.48 674.958 1381.7 680.678 1376.14 685.463C1370.58 690.248 1362.35 692.641 1351.46 692.641C1341.57 692.641 1333.73 690.635 1327.94 686.625C1322.2 682.615 1318.44 677.169 1316.66 670.287ZM1441.29 691V591.605H1461.52V674.115H1511.84V691H1441.29ZM1559.62 618.402V633.715H1546.5V662.973C1546.5 668.897 1546.61 672.361 1546.84 673.363C1547.11 674.32 1547.68 675.118 1548.55 675.756C1549.46 676.394 1550.55 676.713 1551.83 676.713C1553.61 676.713 1556.18 676.098 1559.55 674.867L1561.2 689.77C1556.73 691.684 1551.67 692.641 1546.02 692.641C1542.56 692.641 1539.43 692.071 1536.65 690.932C1533.87 689.747 1531.82 688.243 1530.5 686.42C1529.23 684.551 1528.34 682.045 1527.84 678.9C1527.43 676.667 1527.22 672.156 1527.22 665.365V633.715H1518.4V618.402H1527.22V603.979L1546.5 592.768V618.402H1559.62ZM1639.68 691H1621.83V680.336C1618.87 684.483 1615.36 687.582 1611.31 689.633C1607.3 691.638 1603.24 692.641 1599.14 692.641C1590.8 692.641 1583.64 689.291 1577.67 682.592C1571.75 675.847 1568.79 666.459 1568.79 654.428C1568.79 642.123 1571.68 632.781 1577.47 626.4C1583.26 619.975 1590.57 616.762 1599.41 616.762C1607.52 616.762 1614.54 620.134 1620.47 626.879V590.785H1639.68V691ZM1588.41 653.129C1588.41 660.876 1589.48 666.482 1591.62 669.945C1594.72 674.958 1599.05 677.465 1604.61 677.465C1609.03 677.465 1612.79 675.596 1615.89 671.859C1618.98 668.077 1620.53 662.449 1620.53 654.975C1620.53 646.635 1619.03 640.642 1616.02 636.996C1613.01 633.305 1609.16 631.459 1604.47 631.459C1599.91 631.459 1596.08 633.282 1592.99 636.928C1589.93 640.528 1588.41 645.928 1588.41 653.129Z" fill="#721F4B"/>
<path d="M1000.61 839L1002.29 830.992H1010.3L1008.58 839H1000.61ZM1022.95 839L1024.63 830.992H1032.64L1030.92 839H1022.95ZM1045.3 839L1046.98 830.992H1054.99L1053.27 839H1045.3ZM1065.15 839L1077.1 781.734H1084.17L1072.22 839H1065.15ZM1111.91 831.5C1106.93 837.125 1101.84 839.938 1096.63 839.938C1093.43 839.938 1090.84 839.026 1088.86 837.203C1086.91 835.354 1085.93 833.102 1085.93 830.445C1085.93 828.701 1086.37 825.706 1087.26 821.461L1092.26 797.516H1099.33L1093.78 824.039C1093.31 826.253 1093.08 827.971 1093.08 829.195C1093.08 830.758 1093.55 831.982 1094.48 832.867C1095.45 833.727 1096.85 834.156 1098.7 834.156C1100.68 834.156 1102.61 833.674 1104.48 832.711C1106.39 831.747 1108.01 830.445 1109.37 828.805C1110.75 827.164 1111.87 825.224 1112.73 822.984C1113.3 821.552 1113.96 819.039 1114.72 815.445L1118.47 797.516H1125.54L1116.87 839H1110.34L1111.91 831.5ZM1125.42 839L1143.47 817.945L1133.12 797.516H1140.93L1144.45 804.898C1145.75 807.659 1146.92 810.302 1147.96 812.828L1159.92 797.516H1168.55L1151.13 818.492L1161.6 839H1153.78L1149.64 830.562C1148.76 828.766 1147.75 826.539 1146.63 823.883L1134.29 839H1125.42ZM1196.6 831.5C1191.62 837.125 1186.53 839.938 1181.32 839.938C1178.12 839.938 1175.53 839.026 1173.55 837.203C1171.6 835.354 1170.62 833.102 1170.62 830.445C1170.62 828.701 1171.06 825.706 1171.95 821.461L1176.95 797.516H1184.02L1178.47 824.039C1178 826.253 1177.77 827.971 1177.77 829.195C1177.77 830.758 1178.24 831.982 1179.18 832.867C1180.14 833.727 1181.55 834.156 1183.39 834.156C1185.37 834.156 1187.3 833.674 1189.18 832.711C1191.08 831.747 1192.7 830.445 1194.06 828.805C1195.44 827.164 1196.56 825.224 1197.42 822.984C1197.99 821.552 1198.65 819.039 1199.41 815.445L1203.16 797.516H1210.23L1201.56 839H1195.03L1196.6 831.5ZM1212.89 839L1221.56 797.516H1227.81L1226.05 805.992C1228.19 802.789 1230.27 800.419 1232.3 798.883C1234.36 797.346 1236.46 796.578 1238.59 796.578C1240 796.578 1241.73 797.086 1243.79 798.102L1240.9 804.664C1239.67 803.779 1238.33 803.336 1236.87 803.336C1234.4 803.336 1231.86 804.716 1229.26 807.477C1226.65 810.237 1224.61 815.198 1223.12 822.359L1219.61 839H1212.89ZM1236.95 855.016L1237.38 848.375C1238.84 848.792 1240.26 849 1241.64 849C1243.07 849 1244.23 848.674 1245.12 848.023C1246.26 847.164 1247.51 845.549 1248.87 843.18L1251.13 839.117L1244.22 797.516H1251.17L1254.3 818.492C1254.92 822.633 1255.46 826.773 1255.9 830.914L1274.45 797.516H1281.84L1255.39 844.508C1252.84 849.091 1250.57 852.125 1248.59 853.609C1246.61 855.094 1244.34 855.836 1241.76 855.836C1240.12 855.836 1238.51 855.562 1236.95 855.016ZM1302.03 839L1310.71 797.516H1316.96L1315.2 805.992C1317.33 802.789 1319.42 800.419 1321.45 798.883C1323.51 797.346 1325.6 796.578 1327.74 796.578C1329.14 796.578 1330.88 797.086 1332.93 798.102L1330.04 804.664C1328.82 803.779 1327.48 803.336 1326.02 803.336C1323.54 803.336 1321.01 804.716 1318.4 807.477C1315.8 810.237 1313.75 815.198 1312.27 822.359L1308.75 839H1302.03ZM1359.22 824.898L1366.1 825.602C1365.11 829.013 1362.83 832.255 1359.26 835.328C1355.72 838.401 1351.49 839.938 1346.57 839.938C1343.49 839.938 1340.67 839.234 1338.09 837.828C1335.54 836.396 1333.59 834.326 1332.23 831.617C1330.9 828.909 1330.24 825.823 1330.24 822.359C1330.24 817.828 1331.28 813.44 1333.36 809.195C1335.47 804.924 1338.2 801.76 1341.53 799.703C1344.86 797.62 1348.47 796.578 1352.35 796.578C1357.3 796.578 1361.24 798.115 1364.18 801.188C1367.15 804.26 1368.64 808.453 1368.64 813.766C1368.64 815.797 1368.46 817.88 1368.09 820.016H1337.54C1337.44 820.823 1337.39 821.552 1337.39 822.203C1337.39 826.083 1338.27 829.052 1340.04 831.109C1341.84 833.141 1344.03 834.156 1346.61 834.156C1349.03 834.156 1351.41 833.362 1353.76 831.773C1356.1 830.185 1357.92 827.893 1359.22 824.898ZM1338.68 814.625H1361.96C1361.98 813.896 1362 813.375 1362 813.062C1362 809.521 1361.11 806.812 1359.34 804.938C1357.57 803.036 1355.29 802.086 1352.51 802.086C1349.48 802.086 1346.72 803.128 1344.22 805.211C1341.75 807.294 1339.9 810.432 1338.68 814.625ZM1401.33 832.984C1397.3 837.62 1393.08 839.938 1388.68 839.938C1384.75 839.938 1381.47 838.492 1378.83 835.602C1376.23 832.685 1374.93 828.466 1374.93 822.945C1374.93 817.893 1375.96 813.284 1378.01 809.117C1380.1 804.924 1382.69 801.786 1385.79 799.703C1388.91 797.62 1392.04 796.578 1395.16 796.578C1400.32 796.578 1404.21 799.065 1406.84 804.039L1411.53 781.734H1418.56L1406.61 839H1400.08L1401.33 832.984ZM1381.96 821.617C1381.96 824.508 1382.25 826.786 1382.82 828.453C1383.39 830.12 1384.37 831.513 1385.75 832.633C1387.13 833.727 1388.78 834.273 1390.71 834.273C1393.91 834.273 1396.82 832.607 1399.42 829.273C1402.91 824.846 1404.66 819.378 1404.66 812.867C1404.66 809.586 1403.8 807.021 1402.08 805.172C1400.36 803.323 1398.2 802.398 1395.59 802.398C1393.9 802.398 1392.35 802.776 1390.94 803.531C1389.56 804.286 1388.18 805.576 1386.8 807.398C1385.45 809.195 1384.3 811.487 1383.37 814.273C1382.43 817.06 1381.96 819.508 1381.96 821.617ZM1448.45 824.898L1455.32 825.602C1454.33 829.013 1452.05 832.255 1448.49 835.328C1444.94 838.401 1440.71 839.938 1435.79 839.938C1432.72 839.938 1429.89 839.234 1427.31 837.828C1424.76 836.396 1422.81 834.326 1421.45 831.617C1420.13 828.909 1419.46 825.823 1419.46 822.359C1419.46 817.828 1420.5 813.44 1422.59 809.195C1424.7 804.924 1427.42 801.76 1430.75 799.703C1434.08 797.62 1437.69 796.578 1441.57 796.578C1446.52 796.578 1450.46 798.115 1453.41 801.188C1456.38 804.26 1457.86 808.453 1457.86 813.766C1457.86 815.797 1457.68 817.88 1457.31 820.016H1426.77C1426.66 820.823 1426.61 821.552 1426.61 822.203C1426.61 826.083 1427.5 829.052 1429.27 831.109C1431.06 833.141 1433.25 834.156 1435.83 834.156C1438.25 834.156 1440.63 833.362 1442.98 831.773C1445.32 830.185 1447.14 827.893 1448.45 824.898ZM1427.9 814.625H1451.18C1451.21 813.896 1451.22 813.375 1451.22 813.062C1451.22 809.521 1450.33 806.812 1448.56 804.938C1446.79 803.036 1444.51 802.086 1441.73 802.086C1438.71 802.086 1435.95 803.128 1433.45 805.211C1430.97 807.294 1429.12 810.432 1427.9 814.625ZM1463.57 839L1471.1 802.984H1464.78L1465.91 797.516H1472.24L1473.45 791.617C1474.07 788.674 1474.71 786.552 1475.36 785.25C1476.04 783.948 1477.12 782.88 1478.6 782.047C1480.11 781.188 1482.16 780.758 1484.74 780.758C1486.53 780.758 1489.14 781.135 1492.55 781.891L1491.26 788.062C1488.86 787.438 1486.86 787.125 1485.24 787.125C1483.86 787.125 1482.81 787.477 1482.08 788.18C1481.38 788.857 1480.77 790.484 1480.24 793.062L1479.31 797.516H1487.2L1486.07 802.984H1478.17L1470.64 839H1463.57ZM1494.97 789.742L1496.65 781.734H1503.68L1502 789.742H1494.97ZM1484.66 839L1493.33 797.516H1500.4L1491.73 839H1484.66ZM1502.83 839L1511.5 797.516H1517.9L1516.38 804.742C1519.17 801.904 1521.77 799.833 1524.19 798.531C1526.62 797.229 1529.09 796.578 1531.62 796.578C1534.98 796.578 1537.61 797.49 1539.51 799.312C1541.43 801.135 1542.4 803.57 1542.4 806.617C1542.4 808.154 1542.06 810.576 1541.38 813.883L1536.11 839H1529.04L1534.55 812.711C1535.09 810.159 1535.37 808.271 1535.37 807.047C1535.37 805.667 1534.88 804.547 1533.92 803.688C1532.98 802.828 1531.62 802.398 1529.82 802.398C1526.2 802.398 1522.97 803.701 1520.13 806.305C1517.32 808.909 1515.25 813.375 1513.92 819.703L1509.9 839H1502.83ZM1577.91 824.898L1584.78 825.602C1583.79 829.013 1581.51 832.255 1577.95 835.328C1574.4 838.401 1570.17 839.938 1565.25 839.938C1562.18 839.938 1559.35 839.234 1556.77 837.828C1554.22 836.396 1552.27 834.326 1550.91 831.617C1549.59 828.909 1548.92 825.823 1548.92 822.359C1548.92 817.828 1549.96 813.44 1552.05 809.195C1554.16 804.924 1556.88 801.76 1560.21 799.703C1563.54 797.62 1567.15 796.578 1571.03 796.578C1575.98 796.578 1579.93 798.115 1582.87 801.188C1585.84 804.26 1587.32 808.453 1587.32 813.766C1587.32 815.797 1587.14 817.88 1586.77 820.016H1556.23C1556.12 820.823 1556.07 821.552 1556.07 822.203C1556.07 826.083 1556.96 829.052 1558.73 831.109C1560.52 833.141 1562.71 834.156 1565.29 834.156C1567.71 834.156 1570.09 833.362 1572.44 831.773C1574.78 830.185 1576.6 827.893 1577.91 824.898ZM1557.36 814.625H1580.64C1580.67 813.896 1580.68 813.375 1580.68 813.062C1580.68 809.521 1579.79 806.812 1578.02 804.938C1576.25 803.036 1573.97 802.086 1571.19 802.086C1568.17 802.086 1565.41 803.128 1562.91 805.211C1560.43 807.294 1558.58 810.432 1557.36 814.625ZM1620.02 832.984C1615.98 837.62 1611.76 839.938 1607.36 839.938C1603.43 839.938 1600.15 838.492 1597.52 835.602C1594.91 832.685 1593.61 828.466 1593.61 822.945C1593.61 817.893 1594.64 813.284 1596.7 809.117C1598.78 804.924 1601.37 801.786 1604.47 799.703C1607.6 797.62 1610.72 796.578 1613.85 796.578C1619 796.578 1622.9 799.065 1625.53 804.039L1630.21 781.734H1637.24L1625.29 839H1618.77L1620.02 832.984ZM1600.64 821.617C1600.64 824.508 1600.93 826.786 1601.5 828.453C1602.08 830.12 1603.05 831.513 1604.43 832.633C1605.81 833.727 1607.47 834.273 1609.39 834.273C1612.6 834.273 1615.5 832.607 1618.1 829.273C1621.59 824.846 1623.34 819.378 1623.34 812.867C1623.34 809.586 1622.48 807.021 1620.76 805.172C1619.04 803.323 1616.88 802.398 1614.28 802.398C1612.58 802.398 1611.03 802.776 1609.63 803.531C1608.25 804.286 1606.87 805.576 1605.49 807.398C1604.13 809.195 1602.99 811.487 1602.05 814.273C1601.11 817.06 1600.64 819.508 1600.64 821.617ZM1638.61 839L1640.29 830.992H1648.3L1646.58 839H1638.61Z" fill="#565252"/>
</svg>
