<svg width="16" height="17" viewBox="0 0 16 17" fill="none" xmlns="http://www.w3.org/2000/svg">
<path d="M9.66683 6.49967C9.66683 7.42014 8.92063 8.16634 8.00016 8.16634C7.0797 8.16634 6.3335 7.42014 6.3335 6.49967C6.3335 5.5792 7.0797 4.83301 8.00016 4.83301C8.92063 4.83301 9.66683 5.5792 9.66683 6.49967Z" stroke="#192861"/>
<path d="M12.148 11.833C13.0776 13.1587 13.5224 13.8647 13.2575 14.4329C13.2309 14.4899 13.1998 14.5449 13.1644 14.5975C12.7814 15.1663 11.7915 15.1663 9.8117 15.1663H6.18799C4.20818 15.1663 3.21827 15.1663 2.83524 14.5975C2.79987 14.5449 2.76876 14.4899 2.7422 14.4329C2.4773 13.8647 2.92201 13.1587 3.85169 11.833" stroke="#192861" stroke-linecap="round" stroke-linejoin="round"/>
<path d="M8.83843 12.1621C8.61356 12.3786 8.31303 12.4997 8.0003 12.4997C7.6875 12.4997 7.38696 12.3786 7.1621 12.1621C5.10303 10.1669 2.34362 7.93801 3.6893 4.70216C4.4169 2.95255 6.16346 1.83301 8.0003 1.83301C9.8371 1.83301 11.5836 2.95256 12.3112 4.70216C13.6552 7.93394 10.9026 10.1737 8.83843 12.1621Z" stroke="#192861"/>
</svg>
