<svg width="84" height="28" viewBox="0 0 84 28" fill="none" xmlns="http://www.w3.org/2000/svg">
<rect width="84" height="28" rx="5" fill="#F8F4F6"/>
<g clip-path="url(#clip0_299_11)">
<path d="M22.948 15.916V10.324H24.124V15.844C24.124 17.236 24.892 18.004 26.272 18.004C27.64 18.004 28.396 17.224 28.396 15.844V10.324H29.584V15.916C29.584 17.908 28.312 19.144 26.272 19.144C24.22 19.144 22.948 17.92 22.948 15.916ZM31.3593 21.628V13.132H32.3793L32.4633 14.188C32.8593 13.384 33.6513 12.964 34.5873 12.964C36.2673 12.964 37.3113 14.224 37.3113 16.024C37.3113 17.812 36.3273 19.156 34.5873 19.156C33.6513 19.156 32.8713 18.76 32.4873 18.04V21.628H31.3593ZM32.4993 16.072C32.4993 17.272 33.1953 18.136 34.3473 18.136C35.4993 18.136 36.1833 17.272 36.1833 16.072C36.1833 14.86 35.4993 13.996 34.3473 13.996C33.1953 13.996 32.4993 14.848 32.4993 16.072ZM39.7186 19H38.5906V10.168H39.7186V19ZM41.0071 16.06C41.0071 14.248 42.3031 12.976 44.0671 12.976C45.8191 12.976 47.1151 14.248 47.1151 16.06C47.1151 17.872 45.8191 19.144 44.0671 19.144C42.3031 19.144 41.0071 17.872 41.0071 16.06ZM42.1471 16.06C42.1471 17.284 42.9271 18.136 44.0671 18.136C45.1951 18.136 45.9871 17.284 45.9871 16.06C45.9871 14.836 45.1951 13.984 44.0671 13.984C42.9271 13.984 42.1471 14.836 42.1471 16.06ZM50.0917 19.144C48.8317 19.144 48.0877 18.436 48.0877 17.368C48.0877 16.288 48.8917 15.616 50.2717 15.508L52.1197 15.364V15.196C52.1197 14.212 51.5317 13.864 50.7397 13.864C49.7917 13.864 49.2517 14.284 49.2517 14.992H48.2677C48.2677 13.768 49.2757 12.964 50.7877 12.964C52.2397 12.964 53.2237 13.732 53.2237 15.316V19H52.2637L52.1437 18.052C51.8437 18.724 51.0397 19.144 50.0917 19.144ZM50.4157 18.268C51.4837 18.268 52.1317 17.572 52.1317 16.468V16.156L50.6317 16.276C49.6357 16.372 49.2277 16.756 49.2277 17.332C49.2277 17.956 49.6837 18.268 50.4157 18.268ZM57.1499 19.144C55.4459 19.144 54.4139 17.872 54.4139 16.084C54.4139 14.284 55.4579 12.964 57.1979 12.964C58.0979 12.964 58.8539 13.36 59.2499 14.08V10.168H60.3659V19H59.3579L59.2619 17.932C58.8779 18.736 58.0859 19.144 57.1499 19.144ZM57.3779 18.124C58.5299 18.124 59.2379 17.272 59.2379 16.048C59.2379 14.848 58.5299 13.984 57.3779 13.984C56.2259 13.984 55.5539 14.848 55.5539 16.048C55.5539 17.26 56.2259 18.124 57.3779 18.124Z" fill="#721F4B"/>
</g>
<defs>
<clipPath id="clip0_299_11">
<rect width="40" height="16" fill="white" transform="translate(22 6)"/>
</clipPath>
</defs>
</svg>
