<svg width="64" height="30" viewBox="0 0 64 30" fill="none" xmlns="http://www.w3.org/2000/svg">
<g filter="url(#filter0_d_15_6062)">
<rect x="2" y="1" width="60" height="26" rx="5" fill="#F1E9ED"/>
<path d="M16.01 11.77C14.56 11.77 13.73 12.82 13.73 14.4C13.73 16.03 14.67 16.92 16.02 16.92C17.29 16.92 18.06 16.22 18.06 15.05V15.02H15.85V13.89H19.25V18H18.17L18.09 17.16C17.69 17.72 16.86 18.11 15.87 18.11C13.82 18.11 12.39 16.62 12.39 14.37C12.39 12.15 13.84 10.57 16.04 10.57C17.71 10.57 19 11.54 19.21 13.03H17.86C17.63 12.17 16.89 11.77 16.01 11.77ZM22.6723 18.13C21.2023 18.13 20.1723 17.06 20.1723 15.53C20.1723 13.98 21.1823 12.91 22.6323 12.91C24.1123 12.91 25.0523 13.9 25.0523 15.44V15.81L21.3323 15.82C21.4223 16.69 21.8823 17.13 22.6923 17.13C23.3623 17.13 23.8023 16.87 23.9423 16.4H25.0723C24.8623 17.48 23.9623 18.13 22.6723 18.13ZM22.6423 13.91C21.9223 13.91 21.4823 14.3 21.3623 15.04H23.8423C23.8423 14.36 23.3723 13.91 22.6423 13.91ZM27.6698 18H26.4498V14.08H25.4998V13.06H26.4498V11.52H27.6698V13.06H28.6298V14.08H27.6698V18ZM38.9536 14.34C38.9536 16.56 37.4936 18.12 35.3936 18.12C33.3036 18.12 31.8636 16.57 31.8636 14.34C31.8636 12.12 33.3136 10.56 35.4036 10.56C37.4936 10.56 38.9536 12.11 38.9536 14.34ZM37.6036 14.34C37.6036 12.78 36.7436 11.79 35.4036 11.79C34.0636 11.79 33.2036 12.78 33.2036 14.34C33.2036 15.9 34.0636 16.89 35.4036 16.89C36.7436 16.89 37.6036 15.88 37.6036 14.34ZM39.261 11.87V10.69H44.821V11.87H42.681V18H41.401V11.87H39.261ZM48.6995 15.48H47.0895V18H45.8095V10.69H48.6995C50.1695 10.69 51.1195 11.65 51.1195 13.08C51.1195 14.49 50.1595 15.48 48.6995 15.48ZM48.4495 11.83H47.0895V14.34H48.4295C49.3095 14.34 49.7795 13.87 49.7795 13.07C49.7795 12.27 49.2995 11.83 48.4495 11.83Z" fill="#721F4B"/>
</g>
<defs>
<filter id="filter0_d_15_6062" x="0" y="0" width="64" height="30" filterUnits="userSpaceOnUse" color-interpolation-filters="sRGB">
<feFlood flood-opacity="0" result="BackgroundImageFix"/>
<feColorMatrix in="SourceAlpha" type="matrix" values="0 0 0 0 0 0 0 0 0 0 0 0 0 0 0 0 0 0 127 0" result="hardAlpha"/>
<feOffset dy="1"/>
<feGaussianBlur stdDeviation="1"/>
<feColorMatrix type="matrix" values="0 0 0 0 0.945098 0 0 0 0 0.913725 0 0 0 0 0.929412 0 0 0 0.05 0"/>
<feBlend mode="normal" in2="BackgroundImageFix" result="effect1_dropShadow_15_6062"/>
<feBlend mode="normal" in="SourceGraphic" in2="effect1_dropShadow_15_6062" result="shape"/>
</filter>
</defs>
</svg>
